<?xml version="1.0" encoding="utf-8"?>
<!-- Generator: Adobe Illustrator 24.1.2, SVG Export Plug-In . SVG Version: 6.00 Build 0)  -->
<svg version="1.1" id="Слой_1" xmlns="http://www.w3.org/2000/svg" xmlns:xlink="http://www.w3.org/1999/xlink" x="0px" y="0px"
	 viewBox="0 0 22 22" style="enable-background:new 0 0 22 22;" xml:space="preserve">
<style type="text/css">
	.st0{fill-rule:evenodd;clip-rule:evenodd;fill:#0576F0;}
</style>
<g id="Logo">
	<path id="Logomark" class="st0" d="M8.9,3.5c0-0.8,0-1.2,0.1-1.5c0.2-0.4,0.5-0.7,0.9-0.9C10.3,1,10.6,1,11.4,1s1.2,0,1.5,0.1
		c0.4,0.2,0.7,0.5,0.9,0.9C14,2.3,14,2.7,14,3.5V5c0,0.8,0,1.2-0.1,1.5c-0.2,0.4-0.5,0.7-0.9,0.9c-0.3,0.1-0.7,0.1-1.5,0.1
		s-1.2,0-1.5-0.1C9.5,7.2,9.2,6.9,9,6.5C8.9,6.2,8.9,5.8,8.9,5V3.5z M18.9,8.4c0.8,0,1.2,0,1.5,0.1c0.4,0.2,0.7,0.5,0.9,0.9
		c0.1,0.3,0.1,0.7,0.1,1.5c0,0.8,0,1.2-0.1,1.5c-0.2,0.4-0.5,0.7-0.9,0.9c-0.3,0.1-0.7,0.1-1.5,0.1h-1.5c-0.8,0-1.2,0-1.5-0.1
		c-0.4-0.2-0.7-0.5-0.9-0.9c-0.1-0.3-0.1-0.7-0.1-1.5c0-0.8,0-1.2,0.1-1.5c0.2-0.4,0.5-0.7,0.9-0.9c0.3-0.1,0.7-0.1,1.5-0.1H18.9z
		 M9,15.4c-0.1,0.3-0.1,0.7-0.1,1.5v1.5c0,0.8,0,1.2,0.1,1.5c0.2,0.4,0.5,0.7,0.9,0.9c0.3,0.1,0.7,0.1,1.5,0.1h0l0,0
		c0.8,0,1.2,0,1.5-0.1c0.4-0.2,0.7-0.5,0.9-0.9c0.1-0.3,0.1-0.7,0.1-1.5v-1.5c0-0.8,0-1.2-0.1-1.5c-0.2-0.4-0.5-0.7-0.9-0.9
		c-0.3-0.1-0.7-0.1-1.5-0.1s-1.2,0-1.5,0.1C9.5,14.7,9.2,15,9,15.4z M5.5,8.4c0.8,0,1.2,0,1.5,0.1C7.4,8.7,7.7,9,7.9,9.5
		C8,9.8,8,10.2,8,11c0,0.8,0,1.2-0.1,1.5c-0.2,0.4-0.5,0.7-0.9,0.9c-0.3,0.1-0.7,0.1-1.5,0.1H4c-0.8,0-1.2,0-1.5-0.1
		c-0.4-0.2-0.7-0.5-0.9-0.9c-0.1-0.3-0.1-0.7-0.1-1.5c0-0.8,0-1.2,0.1-1.5C1.7,9,2.1,8.7,2.5,8.5C2.8,8.4,3.2,8.4,4,8.4H5.5z M9,9.5
		C8.9,9.8,8.9,10.2,8.9,11c0,0.8,0,1.2,0.1,1.5c0.2,0.4,0.5,0.7,0.9,0.9c0.3,0.1,0.7,0.1,1.5,0.1s1.2,0,1.5-0.1
		c0.4-0.2,0.7-0.5,0.9-0.9C14,12.1,14,11.7,14,11c0-0.8,0-1.2-0.1-1.5c-0.2-0.4-0.5-0.7-0.9-0.9c-0.3-0.1-0.7-0.1-1.5-0.1
		s-1.2,0-1.5,0.1C9.5,8.7,9.2,9,9,9.5z M14.8,5c0-0.8,0-1.2,0.1-1.5c0.2-0.4,0.5-0.7,0.9-0.9c0.3-0.1,0.7-0.1,1.5-0.1
		c0.8,0,1.2,0,1.5,0.1c0.4,0.2,0.7,0.5,0.9,0.9C20,3.8,20,4.2,20,5s0,1.2-0.1,1.5c-0.2,0.4-0.5,0.7-0.9,0.9
		c-0.3,0.1-0.7,0.1-1.5,0.1c-0.8,0-1.2,0-1.5-0.1c-0.4-0.2-0.7-0.5-0.9-0.9C14.8,6.2,14.8,5.8,14.8,5z M3.1,3.5
		C2.9,3.8,2.9,4.2,2.9,5s0,1.2,0.1,1.5C3.2,6.9,3.6,7.2,4,7.4c0.3,0.1,0.7,0.1,1.5,0.1c0.8,0,1.2,0,1.5-0.1c0.4-0.2,0.7-0.5,0.9-0.9
		C8,6.2,8,5.8,8,5s0-1.2-0.1-1.5C7.7,3.1,7.4,2.7,7,2.6C6.7,2.4,6.3,2.4,5.5,2.4c-0.8,0-1.2,0-1.5,0.1C3.6,2.7,3.2,3.1,3.1,3.5z
		 M14.8,16.9c0-0.8,0-1.2,0.1-1.5c0.2-0.4,0.5-0.7,0.9-0.9c0.3-0.1,0.7-0.1,1.5-0.1c0.8,0,1.2,0,1.5,0.1c0.4,0.2,0.7,0.5,0.9,0.9
		c0.1,0.3,0.1,0.7,0.1,1.5c0,0.8,0,1.2-0.1,1.5c-0.2,0.4-0.5,0.7-0.9,0.9c-0.3,0.1-0.7,0.1-1.5,0.1c-0.8,0-1.2,0-1.5-0.1
		c-0.4-0.2-0.7-0.5-0.9-0.9C14.8,18.1,14.8,17.7,14.8,16.9z M3.1,15.4c-0.1,0.3-0.1,0.7-0.1,1.5c0,0.8,0,1.2,0.1,1.5
		c0.2,0.4,0.5,0.7,0.9,0.9c0.3,0.1,0.7,0.1,1.5,0.1c0.8,0,1.2,0,1.5-0.1c0.4-0.2,0.7-0.5,0.9-0.9C8,18.1,8,17.7,8,16.9
		c0-0.8,0-1.2-0.1-1.5C7.7,15,7.4,14.7,7,14.5c-0.3-0.1-0.7-0.1-1.5-0.1c-0.8,0-1.2,0-1.5,0.1C3.6,14.7,3.2,15,3.1,15.4z"/>
</g>
</svg>
