<svg xmlns="http://www.w3.org/2000/svg" width="18" height="18" viewBox="0 0 18 18" fill="none">
  <rect width="18" height="18" rx="4" fill="#9E9E9E"/>
  <path d="M8.99999 3.28333C10.8667 3.28333 11.1 3.28333 11.8583 3.34167C13.7833 3.4 14.6583 4.33333 14.7166 6.2C14.775 6.95832 14.775 7.13333 14.775 8.99998C14.775 10.8667 14.775 11.1 14.7166 11.8C14.6583 13.6667 13.725 14.6 11.8583 14.6583C11.1 14.7166 10.925 14.7166 8.99999 14.7166C7.13333 14.7166 6.9 14.7166 6.2 14.6583C4.275 14.6 3.4 13.6667 3.34166 11.8C3.28333 11.0417 3.28333 10.8667 3.28333 8.99998C3.28333 7.13333 3.28333 6.9 3.34166 6.2C3.4 4.33333 4.33333 3.4 6.2 3.34167C6.9 3.28333 7.13333 3.28333 8.99999 3.28333ZM8.99999 2C7.07498 2 6.84165 2 6.14166 2.05833C3.575 2.175 2.175 3.575 2.05833 6.14165C2 6.84165 2 7.07498 2 8.99998C2 10.925 2 11.1583 2.05833 11.8583C2.175 14.425 3.575 15.825 6.14166 15.9417C6.84165 16 7.07498 16 8.99999 16C10.925 16 11.1583 16 11.8583 15.9417C14.425 15.825 15.825 14.425 15.9417 11.8583C16 11.1583 16 10.925 16 8.99998C16 7.07498 16 6.84165 15.9417 6.14165C15.825 3.575 14.425 2.175 11.8583 2.05833C11.1583 2 10.925 2 8.99999 2ZM8.99999 5.38334C7.01666 5.38334 5.38334 7.01666 5.38334 8.99998C5.38334 10.9833 7.01666 12.6167 8.99999 12.6167C10.9833 12.6167 12.6167 10.9833 12.6167 8.99998C12.6167 7.01666 10.9833 5.38334 8.99999 5.38334ZM8.99999 11.3333C7.71666 11.3333 6.66667 10.2833 6.66667 8.99998C6.66667 7.71666 7.71666 6.66667 8.99999 6.66667C10.2833 6.66667 11.3333 7.71666 11.3333 8.99998C11.3333 10.2833 10.2833 11.3333 8.99999 11.3333ZM12.7333 4.45C12.2667 4.45 11.9167 4.8 11.9167 5.26668C11.9167 5.73334 12.2667 6.08334 12.7333 6.08334C13.2 6.08334 13.55 5.73334 13.55 5.26668C13.55 4.8 13.2 4.45 12.7333 4.45Z" fill="white"/>
</svg>